<?xml version="1.0" standalone="no"?><!DOCTYPE svg PUBLIC "-//W3C//DTD SVG 1.1//EN" "http://www.w3.org/Graphics/SVG/1.1/DTD/svg11.dtd"><svg t="1622778248952" class="icon" viewBox="0 0 1024 1024" version="1.1" xmlns="http://www.w3.org/2000/svg" p-id="14179" xmlns:xlink="http://www.w3.org/1999/xlink" width="200" height="200"><defs><style type="text/css"></style></defs><path d="M701.575529 879.254588a45.176471 45.176471 0 0 1 2.650353 90.277647l-2.650353 0.075294H316.235294a45.176471 45.176471 0 0 1-2.650353-90.277647l2.650353-0.075294h385.340235zM512 75.294118c207.917176 0 376.470588 168.553412 376.470588 376.470588S719.917176 828.235294 512 828.235294 135.529412 659.681882 135.529412 451.764706 304.082824 75.294118 512 75.294118z m0 90.352941c-158.012235 0-286.117647 128.105412-286.117647 286.117647s128.105412 286.117647 286.117647 286.117647 286.117647-128.105412 286.117647-286.117647-128.105412-286.117647-286.117647-286.117647z m-140.318118 163.102117a45.176471 45.176471 0 0 1 45.101177 42.526118l0.075294 2.650353v72.327529a45.176471 45.176471 0 0 1-90.262588 2.650353l-0.090353-2.650353v-72.327529a45.176471 45.176471 0 0 1 45.17647-45.176471z m171.279059 0a45.176471 45.176471 0 0 1 45.086118 42.526118l0.090353 2.650353v72.327529a45.176471 45.176471 0 0 1-90.277647 2.650353l-0.075294-2.650353v-72.327529a45.176471 45.176471 0 0 1 45.17647-45.176471z" p-id="14180"></path></svg>