<?xml version="1.0" standalone="no"?><!DOCTYPE svg PUBLIC "-//W3C//DTD SVG 1.1//EN" "http://www.w3.org/Graphics/SVG/1.1/DTD/svg11.dtd"><svg t="1622778259703" class="icon" viewBox="0 0 1024 1024" version="1.1" xmlns="http://www.w3.org/2000/svg" p-id="15012" xmlns:xlink="http://www.w3.org/1999/xlink" width="200" height="200"><defs><style type="text/css"></style></defs><path d="M701.575529 879.254588a45.176471 45.176471 0 0 1 2.650353 90.277647l-2.650353 0.075294H316.235294a45.176471 45.176471 0 0 1-2.650353-90.277647l2.650353-0.075294h385.340235zM512 75.294118c207.917176 0 376.470588 168.553412 376.470588 376.470588S719.917176 828.235294 512 828.235294 135.529412 659.681882 135.529412 451.764706 304.082824 75.294118 512 75.294118z m-90.352941 256a45.176471 45.176471 0 0 0-45.101177 42.526117L376.470588 376.470588v72.32753l0.075294 2.650353a45.176471 45.176471 0 0 0 90.202353 0l0.075294-2.650353V376.470588l-0.075294-2.650353A45.176471 45.176471 0 0 0 421.647059 331.294118z m171.264 0a45.176471 45.176471 0 0 0-45.101177 42.526117l-0.075294 2.650353v72.32753l0.075294 2.650353a45.176471 45.176471 0 0 0 90.202353 0l0.075294-2.650353V376.470588l-0.075294-2.650353A45.176471 45.176471 0 0 0 592.911059 331.294118z" fill="#2979ff" p-id="15013"></path></svg>