<?xml version="1.0" standalone="no"?><!DOCTYPE svg PUBLIC "-//W3C//DTD SVG 1.1//EN" "http://www.w3.org/Graphics/SVG/1.1/DTD/svg11.dtd"><svg t="1622800681210" class="icon" viewBox="0 0 1024 1024" version="1.1" xmlns="http://www.w3.org/2000/svg" p-id="4110" xmlns:xlink="http://www.w3.org/1999/xlink" width="200" height="200"><defs><style type="text/css"></style></defs><path d="M323.538459 889.263158c37.726316 0 67.368421 29.642105 67.368421 67.368421S361.264775 1024 323.538459 1024 256.170038 994.357895 256.170038 956.631579 285.812143 889.263158 323.538459 889.263158zM795.117406 889.263158c37.726316 0 67.368421 29.642105 67.368421 67.368421S832.843722 1024 795.117406 1024s-67.368421-29.642105-67.368421-67.368421S757.391091 889.263158 795.117406 889.263158z m75.452632-754.526316C932.548985 134.736842 983.748985 185.936842 983.748985 250.610526v16.168421l-53.894737 466.189474c-8.084211 56.589474-56.589474 99.705263-113.178947 99.705263h-512c-56.589474 0-105.094737-43.115789-113.178947-99.705263L121.433196 134.736842h749.136842z m2.694737 80.842105H213.054248l59.284211 512c2.694737 13.473684 13.473684 24.252632 24.252632 26.947369h520.08421c13.473684 0 24.252632-8.084211 26.947368-21.557895v-2.694737l53.894737-479.663158v-5.389473c0-16.168421-10.778947-26.947368-24.252631-29.642106z m-396.126316 266.778948v2.694737c8.084211 29.642105 40.421053 51.2 78.147368 51.2 35.031579 0 67.368421-18.863158 78.147369-45.810527l2.694737-5.389473c5.389474-21.557895 29.642105-32.336842 51.2-26.947369 21.557895 5.389474 32.336842 29.642105 26.947368 51.2-18.863158 64.673684-83.536842 107.789474-156.294737 107.789474-72.757895 0-137.431579-45.810526-156.294737-110.484211-5.389474-21.557895 5.389474-43.115789 26.947369-51.2 21.557895-2.694737 43.115789 8.084211 48.505263 26.947369z" fill="#333333" p-id="4111"></path><path d="M40.591091 51.2C43.285827 29.642105 64.843722 13.473684 86.401617 18.863158c70.063158 10.778947 97.010526 48.505263 115.873684 137.431579l2.694737 16.168421v13.473684l2.694737 16.168421 8.08421 67.368421c2.694737 21.557895-13.473684 43.115789-35.031579 45.810527-21.557895 2.694737-40.421053-10.778947-43.115789-32.336843v-2.694736L132.212143 242.526316l-2.694737-40.421053-2.694737-13.473684-2.694736-16.168421L121.433196 161.684211l-2.694737-10.778948c-10.778947-37.726316-21.557895-48.505263-43.11579-53.894737C51.370038 94.315789 37.896354 72.757895 40.591091 51.2z" fill="#333333" p-id="4112"></path></svg>