<?xml version="1.0" standalone="no"?><!DOCTYPE svg PUBLIC "-//W3C//DTD SVG 1.1//EN" "http://www.w3.org/Graphics/SVG/1.1/DTD/svg11.dtd"><svg t="1622778214913" class="icon" viewBox="0 0 1126 1024" version="1.1" xmlns="http://www.w3.org/2000/svg" p-id="11112" xmlns:xlink="http://www.w3.org/1999/xlink" width="219.921875" height="200"><defs><style type="text/css"></style></defs><path d="M377.895725 811.229928a107.152974 107.152974 0 0 1 40.956703 7.986557 108.688851 108.688851 0 0 1 34.250043 22.167816 97.27217 97.27217 0 0 1 22.833362 33.584496 108.94483 108.94483 0 0 1 0 81.913406 97.27217 97.27217 0 0 1-22.833362 33.584496 117.187366 117.187366 0 0 1-34.250043 22.730971 100.958273 100.958273 0 0 1-40.956703 8.549711 99.780768 99.780768 0 0 1-41.673445-8.549711 119.491181 119.491181 0 0 1-33.686889-22.730971 97.27217 97.27217 0 0 1-22.833361-33.584496 108.94483 108.94483 0 0 1 0-81.913406 97.27217 97.27217 0 0 1 22.833361-33.584496A110.42951 110.42951 0 0 1 336.22228 819.216485a105.975469 105.975469 0 0 1 41.673445-7.986557z m474.944167 2.252619a111.607016 111.607016 0 0 1 41.673445 7.986557 100.599902 100.599902 0 0 1 34.250043 22.167815 109.405593 109.405593 0 0 1 22.833362 33.584497 102.391757 102.391757 0 0 1 0 81.913406 109.405593 109.405593 0 0 1-22.833362 33.584496 108.023304 108.023304 0 0 1-34.250043 22.73097 105.105139 105.105139 0 0 1-41.673445 8.549712 101.060665 101.060665 0 0 1-40.956703-8.549712 107.511345 107.511345 0 0 1-56.315467-56.315466 102.391757 102.391757 0 0 1 0-81.913406 109.252005 109.252005 0 0 1 22.833362-33.584497 102.033386 102.033386 0 0 1 33.686888-22.167815 107.511345 107.511345 0 0 1 40.956703-7.986557z m191.779762-646.194382a116.828995 116.828995 0 0 1 49.660002 8.549712 56.315467 56.315467 0 0 1 25.137176 21.041506 47.663363 47.663363 0 0 1 6.860248 26.724249 88.876045 88.876045 0 0 1-3.993278 24.47163l-14.28365 42.083012q-10.853526 31.843837-24.522826 69.984766-13.720496 38.14093-26.826641 75.667509t-19.966393 59.182436a127.989697 127.989697 0 0 1-37.680166 63.124519 88.773654 88.773654 0 0 1-55.957096 17.662578H343.645682l17.150619 102.391757h575.390481q54.77959 0 54.779591 46.639446a69.779983 69.779983 0 0 1-10.853527 39.267239 47.765755 47.765755 0 0 1-42.799754 16.485073H338.935661a67.629756 67.629756 0 0 1-38.243321-10.239176 86.521035 86.521035 0 0 1-25.59794-26.724249 162.23974 162.23974 0 0 1-16.536268-35.837115 328.267974 328.267974 0 0 1-9.676021-36.40027q-1.126309-6.809052-6.297094-32.970146t-12.54299-65.428333L213.505758 485.419356l-18.276928-97.27217q-21.707053-114.934748-49.096848-255.979394H60.481277a46.076291 46.076291 0 0 1-28.516105-8.549711 74.28522 74.28522 0 0 1-18.840083-20.478352 78.63687 78.63687 0 0 1-10.239176-25.597939A123.22848 123.22848 0 0 1 0.018944 52.507005 49.81359 49.81359 0 0 1 15.377708 14.980426 57.697755 57.697755 0 0 1 57.358328 0.082425h115.293119a82.527757 82.527757 0 0 1 36.553857 6.809052 61.947013 61.947013 0 0 1 21.707053 17.048228 65.991488 65.991488 0 0 1 11.416681 21.604661q3.430124 11.365485 5.682743 19.352042a256.491352 256.491352 0 0 1 4.556433 25.597939q2.303815 16.485073 4.556433 33.584497 3.430124 20.478351 6.860248 43.209321z m0 0" fill="#FF873D" p-id="11113"></path></svg>