<?xml version="1.0" standalone="no"?><!DOCTYPE svg PUBLIC "-//W3C//DTD SVG 1.1//EN" "http://www.w3.org/Graphics/SVG/1.1/DTD/svg11.dtd"><svg t="1622778168000" class="icon" viewBox="0 0 1024 1024" version="1.1" xmlns="http://www.w3.org/2000/svg" p-id="8763" xmlns:xlink="http://www.w3.org/1999/xlink" width="200" height="200"><defs><style type="text/css"></style></defs><path d="M415.232 484.864H62.0544C30.72 484.864 5.12 459.8784 5.12 429.056V93.696C5.12 62.8736 30.72 37.888 62.0544 37.888h353.0752c31.4368 0 56.9344 24.9856 56.9344 55.808V429.056c0.1024 30.8224-25.4976 55.808-56.832 55.808zM78.6432 411.648h319.8976V111.104H78.6432V411.648zM785.3056 482.6112c-12.8 0-25.7024-4.7104-35.6352-14.2336L569.9584 297.5744c-9.9328-9.4208-15.6672-22.6304-15.6672-36.2496 0-13.6192 5.7344-26.8288 15.6672-36.2496L749.6704 54.3744c19.968-18.944 51.3024-18.944 71.3728 0l179.8144 170.8032c9.9328 9.4208 15.6672 22.7328 15.6672 36.2496 0 13.6192-5.7344 26.8288-15.6672 36.2496L821.0432 468.3776c-10.0352 9.5232-22.8352 14.2336-35.7376 14.2336zM638.3616 261.3248L785.408 400.9984l147.0464-139.6736L785.408 121.6512 638.3616 261.3248zM961.9456 538.624H608.768c-31.4368 0-56.832 25.1904-56.832 55.9104v335.4624c0 30.72 25.4976 56.1152 56.832 56.1152h353.0752c31.4368 0 56.9344-25.3952 56.9344-56.1152V594.5344c0.1024-30.72-25.3952-55.9104-56.832-55.9104zM945.152 912.384H625.664V612.352h319.488v300.032zM415.232 538.624H62.0544C30.72 538.624 5.12 563.8144 5.12 594.5344v335.4624c0 30.72 25.6 56.1152 56.9344 56.1152h353.0752c31.4368 0 56.832-25.3952 56.832-56.1152V594.5344c0.1024-30.72-25.3952-55.9104-56.7296-55.9104zM398.336 912.384H78.848V612.352h319.488v300.032z" p-id="8764"></path></svg>